<svg class="main-svg" xmlns="http://www.w3.org/2000/svg" xmlns:xlink="http://www.w3.org/1999/xlink" width="1280" height="800" style="" viewBox="0 0 1280 800"><rect x="0" y="0" width="1280" height="800" style="fill: rgb(255, 255, 255); fill-opacity: 1;"/><defs id="defs-d4742c"><g class="clips"/><g class="gradients"/><g class="patterns"/></defs><g class="bglayer"/><g class="layer-below"><g class="imagelayer"/><g class="shapelayer"/></g><g class="cartesianlayer"/><g class="polarlayer"/><g class="smithlayer"/><g class="ternarylayer"/><g class="geolayer"/><g class="funnelarealayer"/><g class="pielayer"/><g class="iciclelayer"/><g class="treemaplayer"/><g class="sunburstlayer"/><g class="glimages"/><g class="sankey" transform="translate(80,100)matrix(1 0 0 1 0 0)" style="box-sizing: content-box; position: absolute; left: 0px; shape-rendering: geometricprecision; pointer-events: none;"><g class="sankey-links" style="fill: none;"><path class="sankey-link" d="M100,455.5393770960353C305,455.5393770960353 305,425.5393770960352 510,425.5393770960352L510,436.3573407765484C305,436.3573407765484 305,466.35734077654854 100,466.35734077654854Z" style="stroke: rgb(68, 68, 68); stroke-opacity: 1; fill: rgb(0, 0, 0); fill-opacity: 0.2; stroke-width: 0; opacity: 1;"/><path class="sankey-link" d="M100,466.3573407765485C305,466.3573407765485 305,451.35734077654854 510,451.35734077654854L510,455.48692967064494C305,455.48692967064494 305,470.4869296706449 100,470.4869296706449Z" style="stroke: rgb(68, 68, 68); stroke-opacity: 1; fill: rgb(0, 0, 0); fill-opacity: 0.2; stroke-width: 0; opacity: 1;"/><path class="sankey-link" d="M100,470.4869296706448C305,470.4869296706448 305,470.48692967064494 510,470.48692967064494L510,472.85741097012453C305,472.85741097012453 305,472.8574109701244 100,472.8574109701244Z" style="stroke: rgb(68, 68, 68); stroke-opacity: 1; fill: rgb(0, 0, 0); fill-opacity: 0.2; stroke-width: 0; opacity: 1;"/><path class="sankey-link" d="M100,454.7614595108644C305,454.7614595108644 305,236.11465437761038 510,236.11465437761038L510,236.89257196278126C305,236.89257196278126 305,455.53937709603525 100,455.53937709603525Z" style="stroke: rgb(0, 0, 0); stroke-opacity: 0.2; fill: rgb(0, 0, 0); fill-opacity: 0.2; stroke-width: 1; opacity: 1;"/><path class="sankey-link" d="M100,472.85741097012436C305,472.85741097012436 305,503.3406171703523 510,503.3406171703523L510,504.86220492857365C305,504.86220492857365 305,474.3789987283457 100,474.3789987283457Z" style="stroke: rgb(68, 68, 68); stroke-opacity: 1; fill: rgb(0, 0, 0); fill-opacity: 0.2; stroke-width: 0; opacity: 1;"/><path class="sankey-link" d="M100,432.30312053039637C305,432.30312053039637 305,418.08103811556714 510,418.08103811556714L510,425.5393770960352C305,425.5393770960352 305,439.7614595108644 100,439.7614595108644Z" style="stroke: rgb(68, 68, 68); stroke-opacity: 1; fill: rgb(0, 0, 0); fill-opacity: 0.2; stroke-width: 0; opacity: 1;"/><path class="sankey-link" d="M100,426.2790805231278C305,426.2790805231278 305,230.0906143703418 510,230.0906143703418L510,236.11465437761038C305,236.11465437761038 305,432.30312053039637 100,432.30312053039637Z" style="stroke: rgb(68, 68, 68); stroke-opacity: 1; fill: rgb(0, 0, 0); fill-opacity: 0.2; stroke-width: 0; opacity: 1;"/><path class="sankey-link" d="M100,489.3789987283457C305,489.3789987283457 305,472.8574109701245 510,472.8574109701245L510,488.34061717035223C305,488.34061717035223 305,504.8622049285735 100,504.8622049285735Z" style="stroke: rgb(68, 68, 68); stroke-opacity: 1; fill: rgb(0, 0, 0); fill-opacity: 0.2; stroke-width: 0; opacity: 1;"/><path class="sankey-link" d="M100,519.8622049285735C305,519.8622049285735 305,522.667073138685 510,522.667073138685L510,573.3472520158389C305,573.3472520158389 305,570.5423838057274 100,570.5423838057274Z" style="stroke: rgb(68, 68, 68); stroke-opacity: 1; fill: rgb(0, 0, 0); fill-opacity: 0.2; stroke-width: 0; opacity: 1;"/><path class="sankey-link" d="M100,245.09061437034194C305,245.09061437034194 305,251.8925719627813 510,251.8925719627813L510,418.08103811556714C305,418.08103811556714 305,411.2790805231278 100,411.2790805231278Z" style="stroke: rgb(68, 68, 68); stroke-opacity: 1; fill: rgb(0, 0, 0); fill-opacity: 0.2; stroke-width: 0; opacity: 1;"/><path class="sankey-link" d="M100,30.000000000000085C305,30.000000000000085 305,14.999999999999972 510,14.999999999999972L510,230.0906143703418C305,230.0906143703418 305,245.0906143703419 100,245.0906143703419Z" style="stroke: rgb(68, 68, 68); stroke-opacity: 1; fill: rgb(0, 0, 0); fill-opacity: 0.2; stroke-width: 0; opacity: 1;"/><path class="sankey-link" d="M100,585.5423838057274C305,585.5423838057274 305,504.8622049285737 510,504.8622049285737L510,507.6670731386851C305,507.6670731386851 305,588.3472520158388 100,588.3472520158388Z" style="stroke: rgb(68, 68, 68); stroke-opacity: 1; fill: rgb(0, 0, 0); fill-opacity: 0.2; stroke-width: 0; opacity: 1;"/><path class="sankey-link" d="M100,588.3472520158388C305,588.3472520158388 305,588.3472520158389 510,588.3472520158389L510,620C305,620 305,619.9999999999999 100,619.9999999999999Z" style="stroke: rgb(68, 68, 68); stroke-opacity: 1; fill: rgb(0, 0, 0); fill-opacity: 0.2; stroke-width: 0; opacity: 1;"/><path class="sankey-link" d="M610,251.8925719627813C815,251.8925719627813 815,65.44635362945237 1020,65.44635362945237L1020,87.9163600290081C815,87.9163600290081 815,274.362578362337 610,274.362578362337Z" style="stroke: rgb(68, 68, 68); stroke-opacity: 1; fill: rgb(0, 0, 0); fill-opacity: 0.2; stroke-width: 0; opacity: 1;"/><path class="sankey-link" d="M610,369.3736823137373C815,369.3736823137373 815,460.3907860313724 1020,460.3907860313724L1020,467.7007564170974C815,467.7007564170974 815,376.6836526994623 610,376.6836526994623Z" style="stroke: rgb(68, 68, 68); stroke-opacity: 1; fill: rgb(0, 0, 0); fill-opacity: 0.2; stroke-width: 0; opacity: 1;"/><path class="sankey-link" d="M610,432.7023645592524C815,432.7023645592524 815,611.499582984754 1020,611.499582984754L1020,615.1545592020501C815,615.1545592020501 815,436.3573407765484 610,436.3573407765484Z" style="stroke: rgb(68, 68, 68); stroke-opacity: 1; fill: rgb(0, 0, 0); fill-opacity: 0.2; stroke-width: 0; opacity: 1;"/><path class="sankey-link" d="M610,329.0931754346997C815,329.0931754346997 815,328.644536705107 1020,328.644536705107L1020,354.05551553907065C815,354.05551553907065 815,354.50415426866334 610,354.50415426866334Z" style="stroke: rgb(68, 68, 68); stroke-opacity: 1; fill: rgb(0, 0, 0); fill-opacity: 0.2; stroke-width: 0; opacity: 1;"/><path class="sankey-link" d="M610,354.50415426866334C815,354.50415426866334 815,399.9708668717843 1020,399.9708668717843L1020,408.664623175775C815,408.664623175775 815,363.197910572654 610,363.197910572654Z" style="stroke: rgb(68, 68, 68); stroke-opacity: 1; fill: rgb(0, 0, 0); fill-opacity: 0.2; stroke-width: 0; opacity: 1;"/><path class="sankey-link" d="M610,274.362578362337C815,274.362578362337 815,183.69017353876404 1020,183.69017353876404L1020,238.42077061112673C815,238.42077061112673 815,329.0931754346997 610,329.0931754346997Z" style="stroke: rgb(68, 68, 68); stroke-opacity: 1; fill: rgb(0, 0, 0); fill-opacity: 0.2; stroke-width: 0; opacity: 1;"/><path class="sankey-link" d="M610,376.68365269946236C815,376.68365269946236 815,503.69716818519674 1020,503.69716818519674L1020,559.7158800449868C815,559.7158800449868 815,432.7023645592523 610,432.7023645592523Z" style="stroke: rgb(68, 68, 68); stroke-opacity: 1; fill: rgb(0, 0, 0); fill-opacity: 0.2; stroke-width: 0; opacity: 1;"/><path class="sankey-link" d="M610,363.197910572654C815,363.197910572654 815,432.21345209161836 1020,432.21345209161836L1020,438.38922383270165C815,438.38922383270165 815,369.3736823137373 610,369.3736823137373Z" style="stroke: rgb(68, 68, 68); stroke-opacity: 1; fill: rgb(0, 0, 0); fill-opacity: 0.2; stroke-width: 0; opacity: 1;"/><path class="sankey-link" d="M610,552.5833832959761C815,552.5833832959761 815,468.140628996777 1020,468.140628996777L1020,470.45081734850993C815,470.45081734850993 815,554.893571647709 610,554.893571647709Z" style="stroke: rgb(68, 68, 68); stroke-opacity: 1; fill: rgb(0, 0, 0); fill-opacity: 0.2; stroke-width: 0; opacity: 1;"/><path class="sankey-link" d="M610,570.3646614124921C815,570.3646614124921 815,616.1703295425363 1020,616.1703295425363L1020,619.1529201458831C815,619.1529201458831 815,573.3472520158389 610,573.3472520158389Z" style="stroke: rgb(68, 68, 68); stroke-opacity: 1; fill: rgb(0, 0, 0); fill-opacity: 0.2; stroke-width: 0; opacity: 1;"/><path class="sankey-link" d="M610,539.089355875759C815,539.089355875759 815,359.40854229809634 1020,359.40854229809634L1020,369.2735423027809C815,369.2735423027809 815,548.9543558804436 610,548.9543558804436Z" style="stroke: rgb(68, 68, 68); stroke-opacity: 1; fill: rgb(0, 0, 0); fill-opacity: 0.2; stroke-width: 0; opacity: 1;"/><path class="sankey-link" d="M610,548.9543558804436C815,548.9543558804436 815,409.66945823875494 1020,409.66945823875494L1020,412.49154913356733C815,412.49154913356733 815,551.776446775256 610,551.776446775256Z" style="stroke: rgb(68, 68, 68); stroke-opacity: 1; fill: rgb(0, 0, 0); fill-opacity: 0.2; stroke-width: 0; opacity: 1;"/><path class="sankey-link" d="M610,522.667073138685C815,522.667073138685 815,247.17256028330698 1020,247.17256028330698L1020,263.5948430203809C815,263.5948430203809 815,539.0893558757589 610,539.0893558757589Z" style="stroke: rgb(68, 68, 68); stroke-opacity: 1; fill: rgb(0, 0, 0); fill-opacity: 0.2; stroke-width: 0; opacity: 1;"/><path class="sankey-link" d="M610,554.893571647709C815,554.893571647709 815,565.6403848760971 1020,565.6403848760971L1020,581.1114746408801C815,581.1114746408801 815,570.3646614124921 610,570.3646614124921Z" style="stroke: rgb(68, 68, 68); stroke-opacity: 1; fill: rgb(0, 0, 0); fill-opacity: 0.2; stroke-width: 0; opacity: 1;"/><path class="sankey-link" d="M610,551.776446775256C815,551.776446775256 815,438.4569875601673 1020,438.4569875601673L1020,439.2639240808874C815,439.2639240808874 815,552.5833832959762 610,552.5833832959762Z" style="stroke: rgb(0, 0, 0); stroke-opacity: 0.2; fill: rgb(0, 0, 0); fill-opacity: 0.2; stroke-width: 1; opacity: 1;"/><path class="sankey-link" d="M610,451.35734077654854C815,451.35734077654854 815,87.91636002900809 1020,87.91636002900809L1020,88.97008666222244C815,88.97008666222244 815,452.41106740976284 610,452.41106740976284Z" style="stroke: rgb(68, 68, 68); stroke-opacity: 1; fill: rgb(0, 0, 0); fill-opacity: 0.2; stroke-width: 0; opacity: 1;"/><path class="sankey-link" d="M610,454.8128136355961C815,454.8128136355961 815,467.70075641709747 1020,467.70075641709747L1020,468.140628996777C815,468.140628996777 815,455.2526862152757 610,455.2526862152757Z" style="stroke: rgb(0, 0, 0); stroke-opacity: 0.2; fill: rgb(0, 0, 0); fill-opacity: 0.2; stroke-width: 1; opacity: 1;"/><path class="sankey-link" d="M610,455.2526862152757C815,455.2526862152757 815,615.1545592020501 1020,615.1545592020501L1020,615.3888026574194C815,615.3888026574194 815,455.4869296706449 610,455.4869296706449Z" style="stroke: rgb(0, 0, 0); stroke-opacity: 0.2; fill: rgb(0, 0, 0); fill-opacity: 0.2; stroke-width: 1; opacity: 1;"/><path class="sankey-link" d="M610,453.54500664501666C815,453.54500664501666 815,354.05551553907065 1020,354.05551553907065L1020,354.9025182855302C815,354.9025182855302 815,454.3920093914762 610,454.3920093914762Z" style="stroke: rgb(0, 0, 0); stroke-opacity: 0.2; fill: rgb(0, 0, 0); fill-opacity: 0.2; stroke-width: 1; opacity: 1;"/><path class="sankey-link" d="M610,454.3920093914762C815,454.3920093914762 815,408.664623175775 1020,408.664623175775L1020,409.0854274198949C815,409.0854274198949 815,454.81281363559617 610,454.81281363559617Z" style="stroke: rgb(0, 0, 0); stroke-opacity: 0.2; fill: rgb(0, 0, 0); fill-opacity: 0.2; stroke-width: 1; opacity: 1;"/><path class="sankey-link" d="M610,452.41106740976284C815,452.41106740976284 815,238.42077061112673 1020,238.42077061112673L1020,239.5547098463805C815,239.5547098463805 815,453.54500664501666 610,453.54500664501666Z" style="stroke: rgb(68, 68, 68); stroke-opacity: 1; fill: rgb(0, 0, 0); fill-opacity: 0.2; stroke-width: 0; opacity: 1;"/><path class="sankey-link" d="M610,470.48692967064494C815,470.48692967064494 815,88.97008666222243 1020,88.97008666222243L1020,89.67979412125996C815,89.67979412125996 815,471.1966371296825 610,471.1966371296825Z" style="stroke: rgb(0, 0, 0); stroke-opacity: 0.2; fill: rgb(0, 0, 0); fill-opacity: 0.2; stroke-width: 1; opacity: 1;"/><path class="sankey-link" d="M610,487.5590902852353C815,487.5590902852353 815,615.3888026574193 1020,615.3888026574193L1020,616.1703295425364C815,616.1703295425364 815,488.34061717035223 610,488.34061717035223Z" style="stroke: rgb(0, 0, 0); stroke-opacity: 0.2; fill: rgb(0, 0, 0); fill-opacity: 0.2; stroke-width: 1; opacity: 1;"/><path class="sankey-link" d="M610,478.3353517201717C815,478.3353517201717 815,354.9025182855302 1020,354.9025182855302L1020,358.33980673460593C815,358.33980673460593 815,481.7726401692474 610,481.7726401692474Z" style="stroke: rgb(68, 68, 68); stroke-opacity: 1; fill: rgb(0, 0, 0); fill-opacity: 0.2; stroke-width: 0; opacity: 1;"/><path class="sankey-link" d="M610,481.7726401692473C815,481.7726401692473 815,409.08542741989487 1020,409.08542741989487L1020,409.51773180640856C815,409.51773180640856 815,482.204944555761 610,482.204944555761Z" style="stroke: rgb(0, 0, 0); stroke-opacity: 0.2; fill: rgb(0, 0, 0); fill-opacity: 0.2; stroke-width: 1; opacity: 1;"/><path class="sankey-link" d="M610,471.1966371296825C815,471.1966371296825 815,239.5547098463805 1020,239.5547098463805L1020,246.6934244368697C815,246.6934244368697 815,478.33535172017173 610,478.33535172017173Z" style="stroke: rgb(68, 68, 68); stroke-opacity: 1; fill: rgb(0, 0, 0); fill-opacity: 0.2; stroke-width: 0; opacity: 1;"/><path class="sankey-link" d="M610,482.2049445557611C815,482.2049445557611 815,559.7158800449868 1020,559.7158800449868L1020,565.0700257744611C815,565.0700257744611 815,487.5590902852353 610,487.5590902852353Z" style="stroke: rgb(68, 68, 68); stroke-opacity: 1; fill: rgb(0, 0, 0); fill-opacity: 0.2; stroke-width: 0; opacity: 1;"/><path class="sankey-link" d="M610,14.999999999999972C815,14.999999999999972 815,-6.252776074688882e-13 1020,-6.252776074688882e-13L1020,65.44635362945237C815,65.44635362945237 815,80.44635362945297 610,80.44635362945297Z" style="stroke: rgb(68, 68, 68); stroke-opacity: 1; fill: rgb(0, 0, 0); fill-opacity: 0.2; stroke-width: 0; opacity: 1;"/><path class="sankey-link" d="M610,213.2675113284224C815,213.2675113284224 815,455.1581721308239 1020,455.1581721308239L1020,460.3907860313724C815,460.3907860313724 815,218.50012522897086 610,218.50012522897086Z" style="stroke: rgb(68, 68, 68); stroke-opacity: 1; fill: rgb(0, 0, 0); fill-opacity: 0.2; stroke-width: 0; opacity: 1;"/><path class="sankey-link" d="M610,235.7255349207448C815,235.7255349207448 815,610.3325459427175 1020,610.3325459427175L1020,611.499582984754C815,611.499582984754 815,236.8925719627813 610,236.8925719627813Z" style="stroke: rgb(68, 68, 68); stroke-opacity: 1; fill: rgb(0, 0, 0); fill-opacity: 0.2; stroke-width: 0; opacity: 1;"/><path class="sankey-link" d="M610,154.6505255566408C815,154.6505255566408 815,285.67903660246117 1020,285.67903660246117L1020,328.644536705107C815,328.644536705107 815,197.6160256592866 610,197.6160256592866Z" style="stroke: rgb(68, 68, 68); stroke-opacity: 1; fill: rgb(0, 0, 0); fill-opacity: 0.2; stroke-width: 0; opacity: 1;"/><path class="sankey-link" d="M610,197.61602565928663C815,197.61602565928663 815,387.89021246411977 1020,387.89021246411977L1020,399.97086687178427C815,399.97086687178427 815,209.6966800669512 610,209.6966800669512Z" style="stroke: rgb(68, 68, 68); stroke-opacity: 1; fill: rgb(0, 0, 0); fill-opacity: 0.2; stroke-width: 0; opacity: 1;"/><path class="sankey-link" d="M610,80.44635362945297C815,80.44635362945297 815,109.48600161157623 1020,109.48600161157623L1020,183.69017353876404C815,183.69017353876404 815,154.6505255566408 610,154.6505255566408Z" style="stroke: rgb(68, 68, 68); stroke-opacity: 1; fill: rgb(0, 0, 0); fill-opacity: 0.2; stroke-width: 0; opacity: 1;"/><path class="sankey-link" d="M610,218.5001252289709C815,218.5001252289709 815,486.47175849342284 1020,486.47175849342284L1020,503.6971681851968C815,503.6971681851968 815,235.7255349207448 610,235.7255349207448Z" style="stroke: rgb(68, 68, 68); stroke-opacity: 1; fill: rgb(0, 0, 0); fill-opacity: 0.2; stroke-width: 0; opacity: 1;"/><path class="sankey-link" d="M610,209.6966800669512C815,209.6966800669512 815,428.64262083014717 1020,428.64262083014717L1020,432.21345209161836C815,432.21345209161836 815,213.2675113284224 610,213.2675113284224Z" style="stroke: rgb(68, 68, 68); stroke-opacity: 1; fill: rgb(0, 0, 0); fill-opacity: 0.2; stroke-width: 0; opacity: 1;"/><path class="sankey-link" d="M610,503.3406171703523C815,503.3406171703523 815,89.67979412125996 1020,89.67979412125996L1020,91.66852941821705C815,91.66852941821705 815,505.3293524673094 610,505.3293524673094Z" style="stroke: rgb(68, 68, 68); stroke-opacity: 1; fill: rgb(0, 0, 0); fill-opacity: 0.2; stroke-width: 0; opacity: 1;"/><path class="sankey-link" d="M610,505.8084883137467C815,505.8084883137467 815,358.3398067346059 1020,358.3398067346059L1020,359.40854229809634C815,359.40854229809634 815,506.87722387723716 610,506.87722387723716Z" style="stroke: rgb(68, 68, 68); stroke-opacity: 1; fill: rgb(0, 0, 0); fill-opacity: 0.2; stroke-width: 0; opacity: 1;"/><path class="sankey-link" d="M610,506.87722387723716C815,506.87722387723716 815,409.5177318064086 1020,409.5177318064086L1020,409.66945823875494C815,409.66945823875494 815,507.0289503095835 610,507.0289503095835Z" style="stroke: rgb(0, 0, 0); stroke-opacity: 0.2; fill: rgb(0, 0, 0); fill-opacity: 0.2; stroke-width: 1; opacity: 1;"/><path class="sankey-link" d="M610,505.3293524673094C815,505.3293524673094 815,246.6934244368697 1020,246.6934244368697L1020,247.172560283307C815,247.172560283307 815,505.8084883137467 610,505.8084883137467Z" style="stroke: rgb(0, 0, 0); stroke-opacity: 0.2; fill: rgb(0, 0, 0); fill-opacity: 0.2; stroke-width: 1; opacity: 1;"/><path class="sankey-link" d="M610,507.09671403704914C815,507.09671403704914 815,565.070025774461 1020,565.070025774461L1020,565.6403848760971C815,565.6403848760971 815,507.6670731386852 610,507.6670731386852Z" style="stroke: rgb(0, 0, 0); stroke-opacity: 0.2; fill: rgb(0, 0, 0); fill-opacity: 0.2; stroke-width: 1; opacity: 1;"/><path class="sankey-link" d="M610,507.0289503095835C815,507.0289503095835 815,438.38922383270165 1020,438.38922383270165L1020,438.45698756016736C815,438.45698756016736 815,507.0967140370492 610,507.0967140370492Z" style="stroke: rgb(0, 0, 0); stroke-opacity: 0.2; fill: rgb(0, 0, 0); fill-opacity: 0.2; stroke-width: 1; opacity: 1;"/><path class="sankey-link" d="M610,588.3472520158389C815,588.3472520158389 815,91.66852941821703 1020,91.66852941821703L1020,94.4860016115761C815,94.4860016115761 815,591.1647242091979 610,591.1647242091979Z" style="stroke: rgb(68, 68, 68); stroke-opacity: 1; fill: rgb(0, 0, 0); fill-opacity: 0.2; stroke-width: 0; opacity: 1;"/><path class="sankey-link" d="M610,603.9109076991328C815,603.9109076991328 815,470.45081734851 1020,470.45081734851L1020,471.47175849342284C815,471.47175849342284 815,604.9318488440458 610,604.9318488440458Z" style="stroke: rgb(68, 68, 68); stroke-opacity: 1; fill: rgb(0, 0, 0); fill-opacity: 0.2; stroke-width: 0; opacity: 1;"/><path class="sankey-link" d="M610,619.1529201458831C815,619.1529201458831 815,619.152920145883 1020,619.152920145883L1020,620C815,620 815,620.0000000000001 610,620.0000000000001Z" style="stroke: rgb(0, 0, 0); stroke-opacity: 0.2; fill: rgb(0, 0, 0); fill-opacity: 0.2; stroke-width: 1; opacity: 1;"/><path class="sankey-link" d="M610,598.248917791278C815,598.248917791278 815,369.2735423027809 1020,369.2735423027809L1020,372.8902124641197C815,372.8902124641197 815,601.8655879526168 610,601.8655879526168Z" style="stroke: rgb(68, 68, 68); stroke-opacity: 1; fill: rgb(0, 0, 0); fill-opacity: 0.2; stroke-width: 0; opacity: 1;"/><path class="sankey-link" d="M610,601.8655879526168C815,601.8655879526168 815,412.49154913356733 1020,412.49154913356733L1020,413.64262083014694C815,413.64262083014694 815,603.0166596491963 610,603.0166596491963Z" style="stroke: rgb(68, 68, 68); stroke-opacity: 1; fill: rgb(0, 0, 0); fill-opacity: 0.2; stroke-width: 0; opacity: 1;"/><path class="sankey-link" d="M610,591.164724209198C815,591.164724209198 815,263.5948430203809 1020,263.5948430203809L1020,270.67903660246094C815,270.67903660246094 815,598.2489177912779 610,598.2489177912779Z" style="stroke: rgb(68, 68, 68); stroke-opacity: 1; fill: rgb(0, 0, 0); fill-opacity: 0.2; stroke-width: 0; opacity: 1;"/><path class="sankey-link" d="M610,604.9318488440457C815,604.9318488440457 815,581.1114746408801 1020,581.1114746408801L1020,595.3325459427175C815,595.3325459427175 815,619.1529201458831 610,619.1529201458831Z" style="stroke: rgb(68, 68, 68); stroke-opacity: 1; fill: rgb(0, 0, 0); fill-opacity: 0.2; stroke-width: 0; opacity: 1;"/><path class="sankey-link" d="M610,603.0166596491964C815,603.0166596491964 815,439.2639240808875 1020,439.2639240808875L1020,440.1581721308239C815,440.1581721308239 815,603.910907699133 610,603.910907699133Z" style="stroke: rgb(0, 0, 0); stroke-opacity: 0.2; fill: rgb(0, 0, 0); fill-opacity: 0.2; stroke-width: 1; opacity: 1;"/></g><g class="sankey-node-set" style="cursor: move;"><g class="sankey-node" transform="translate(510.000,251.893)" style="opacity: 1;"><rect class="node-rect" width="100" height="184.46476881376725" style="stroke-width: 0.5; stroke: rgb(68, 68, 68); stroke-opacity: 1; fill: rgb(99, 110, 250); fill-opacity: 1;"/><text class="node-label" data-notex="1" x="0" y="0" text-anchor="start" transform="translate(103.25,95.73238440688363)" style="cursor: default; font-family: 'Open Sans', verdana, arial, sans-serif; font-size: 10px; fill: rgb(42, 63, 95); fill-opacity: 1; white-space: pre; text-shadow: white 1px 1px 1px, white -1px -1px 1px, white 1px -1px 1px, white -1px 1px 1px;">Ceramide (35.8%)</text></g><g class="sankey-node" transform="translate(510.000,522.667)" style="opacity: 1;"><rect class="node-rect" width="100" height="50.68017887715382" style="stroke-width: 0.5; stroke: rgb(68, 68, 68); stroke-opacity: 1; fill: rgb(239, 85, 59); fill-opacity: 1;"/><text class="node-label" data-notex="1" x="0" y="0" text-anchor="start" transform="translate(103.25,28.84008943857691)" style="cursor: default; font-family: 'Open Sans', verdana, arial, sans-serif; font-size: 10px; fill: rgb(42, 63, 95); fill-opacity: 1; white-space: pre; text-shadow: white 1px 1px 1px, white -1px -1px 1px, white 1px -1px 1px, white -1px 1px 1px;">Deoxy-Ceramide (9.8%)</text></g><g class="sankey-node" transform="translate(510.000,451.357)" style="opacity: 1;"><rect class="node-rect" width="100" height="4.1295888940964005" style="stroke-width: 0.5; stroke: rgb(68, 68, 68); stroke-opacity: 1; fill: rgb(0, 204, 150); fill-opacity: 1;"/><text class="node-label" data-notex="1" x="0" y="0" text-anchor="start" transform="translate(103.25,5.5647944470482)" style="cursor: default; font-family: 'Open Sans', verdana, arial, sans-serif; font-size: 10px; fill: rgb(42, 63, 95); fill-opacity: 1; white-space: pre; text-shadow: white 1px 1px 1px, white -1px -1px 1px, white 1px -1px 1px, white -1px 1px 1px;">Dihydro-Ceramide (0.8%)</text></g><g class="sankey-node" transform="translate(510.000,470.487)" style="opacity: 1;"><rect class="node-rect" width="100" height="17.85368749970735" style="stroke-width: 0.5; stroke: rgb(68, 68, 68); stroke-opacity: 1; fill: rgb(171, 99, 250); fill-opacity: 1;"/><text class="node-label" data-notex="1" x="0" y="0" text-anchor="start" transform="translate(103.25,12.426843749853674)" style="cursor: default; font-family: 'Open Sans', verdana, arial, sans-serif; font-size: 10px; fill: rgb(42, 63, 95); fill-opacity: 1; white-space: pre; text-shadow: white 1px 1px 1px, white -1px -1px 1px, white 1px -1px 1px, white -1px 1px 1px;">Dihydro-Deoxy-Ceramide (3.5%)</text></g><g class="sankey-node" transform="translate(1020.000,-0.000)" style="opacity: 1;"><rect class="node-rect" width="100" height="94.48600161157685" style="stroke-width: 0.5; stroke: rgb(68, 68, 68); stroke-opacity: 1; fill: rgb(255, 161, 90); fill-opacity: 1;"/><text class="node-label" data-notex="1" x="0" y="0" text-anchor="end" transform="translate(-3.25,50.74300080578843)" style="cursor: default; font-family: 'Open Sans', verdana, arial, sans-serif; font-size: 10px; fill: rgb(42, 63, 95); fill-opacity: 1; white-space: pre; text-shadow: white 1px 1px 1px, white -1px -1px 1px, white 1px -1px 1px, white -1px 1px 1px;">FA 16:0 (18.3%)</text></g><g class="sankey-node" transform="translate(1020.000,455.158)" style="opacity: 1;"><rect class="node-rect" width="100" height="16.313586362598926" style="stroke-width: 0.5; stroke: rgb(68, 68, 68); stroke-opacity: 1; fill: rgb(25, 211, 243); fill-opacity: 1;"/><text class="node-label" data-notex="1" x="0" y="0" text-anchor="end" transform="translate(-3.25,11.656793181299463)" style="cursor: default; font-family: 'Open Sans', verdana, arial, sans-serif; font-size: 10px; fill: rgb(42, 63, 95); fill-opacity: 1; white-space: pre; text-shadow: white 1px 1px 1px, white -1px -1px 1px, white 1px -1px 1px, white -1px 1px 1px;">FA 18:0 (3.2%)</text></g><g class="sankey-node" transform="translate(1020.000,610.333)" style="opacity: 1;"><rect class="node-rect" width="100" height="9.667454057282498" style="stroke-width: 0.5; stroke: rgb(68, 68, 68); stroke-opacity: 1; fill: rgb(255, 102, 146); fill-opacity: 1;"/><text class="node-label" data-notex="1" x="0" y="0" text-anchor="end" transform="translate(-3.25,8.333727028641249)" style="cursor: default; font-family: 'Open Sans', verdana, arial, sans-serif; font-size: 10px; fill: rgb(42, 63, 95); fill-opacity: 1; white-space: pre; text-shadow: white 1px 1px 1px, white -1px -1px 1px, white 1px -1px 1px, white -1px 1px 1px;">FA 20:0 (1.9%)</text></g><g class="sankey-node" transform="translate(1020.000,285.679)" style="opacity: 1;"><rect class="node-rect" width="100" height="87.2111758616586" style="stroke-width: 0.5; stroke: rgb(68, 68, 68); stroke-opacity: 1; fill: rgb(182, 232, 128); fill-opacity: 1;"/><text class="node-label" data-notex="1" x="0" y="0" text-anchor="end" transform="translate(-3.25,47.1055879308293)" style="cursor: default; font-family: 'Open Sans', verdana, arial, sans-serif; font-size: 10px; fill: rgb(42, 63, 95); fill-opacity: 1; white-space: pre; text-shadow: white 1px 1px 1px, white -1px -1px 1px, white 1px -1px 1px, white -1px 1px 1px;">FA 22:0 (16.9%)</text></g><g class="sankey-node" transform="translate(1020.000,387.890)" style="opacity: 1;"><rect class="node-rect" width="100" height="25.75240836602734" style="stroke-width: 0.5; stroke: rgb(68, 68, 68); stroke-opacity: 1; fill: rgb(255, 151, 255); fill-opacity: 1;"/><text class="node-label" data-notex="1" x="0" y="0" text-anchor="end" transform="translate(-3.25,16.37620418301367)" style="cursor: default; font-family: 'Open Sans', verdana, arial, sans-serif; font-size: 10px; fill: rgb(42, 63, 95); fill-opacity: 1; white-space: pre; text-shadow: white 1px 1px 1px, white -1px -1px 1px, white 1px -1px 1px, white -1px 1px 1px;">FA 23:0 (5.0%)</text></g><g class="sankey-node" transform="translate(1020.000,109.486)" style="opacity: 1;"><rect class="node-rect" width="100" height="161.19303499088494" style="stroke-width: 0.5; stroke: rgb(68, 68, 68); stroke-opacity: 1; fill: rgb(254, 203, 82); fill-opacity: 1;"/><text class="node-label" data-notex="1" x="0" y="0" text-anchor="end" transform="translate(-3.25,84.09651749544247)" style="cursor: default; font-family: 'Open Sans', verdana, arial, sans-serif; font-size: 10px; fill: rgb(42, 63, 95); fill-opacity: 1; white-space: pre; text-shadow: white 1px 1px 1px, white -1px -1px 1px, white 1px -1px 1px, white -1px 1px 1px;">FA 24:0 (31.3%)</text></g><g class="sankey-node" transform="translate(1020.000,486.472)" style="opacity: 1;"><rect class="node-rect" width="100" height="108.86078744929466" style="stroke-width: 0.5; stroke: rgb(68, 68, 68); stroke-opacity: 1; fill: rgb(99, 110, 250); fill-opacity: 1;"/><text class="node-label" data-notex="1" x="0" y="0" text-anchor="end" transform="translate(-3.25,57.93039372464733)" style="cursor: default; font-family: 'Open Sans', verdana, arial, sans-serif; font-size: 10px; fill: rgb(42, 63, 95); fill-opacity: 1; white-space: pre; text-shadow: white 1px 1px 1px, white -1px -1px 1px, white 1px -1px 1px, white -1px 1px 1px;">FA 24:1 (21.1%)</text></g><g class="sankey-node" transform="translate(510.000,15.000)" style="opacity: 1;"><rect class="node-rect" width="100" height="221.89257196278132" style="stroke-width: 0.5; stroke: rgb(68, 68, 68); stroke-opacity: 1; fill: rgb(239, 85, 59); fill-opacity: 1;"/><text class="node-label" data-notex="1" x="0" y="0" text-anchor="start" transform="translate(103.25,114.44628598139066)" style="cursor: default; font-family: 'Open Sans', verdana, arial, sans-serif; font-size: 10px; fill: rgb(42, 63, 95); fill-opacity: 1; white-space: pre; text-shadow: white 1px 1px 1px, white -1px -1px 1px, white 1px -1px 1px, white -1px 1px 1px;">Hex-(n)-Ceramide (43.1%)</text></g><g class="sankey-node" transform="translate(510.000,503.341)" style="opacity: 1;"><rect class="node-rect" width="100" height="4.326455968332766" style="stroke-width: 0.5; stroke: rgb(68, 68, 68); stroke-opacity: 1; fill: rgb(0, 204, 150); fill-opacity: 1;"/><text class="node-label" data-notex="1" x="0" y="0" text-anchor="start" transform="translate(103.25,5.663227984166383)" style="cursor: default; font-family: 'Open Sans', verdana, arial, sans-serif; font-size: 10px; fill: rgb(42, 63, 95); fill-opacity: 1; white-space: pre; text-shadow: white 1px 1px 1px, white -1px -1px 1px, white 1px -1px 1px, white -1px 1px 1px;">Others (0.8%)</text></g><g class="sankey-node" transform="translate(1020.000,428.643)" style="opacity: 1;"><rect class="node-rect" width="100" height="11.515551300676748" style="stroke-width: 0.5; stroke: rgb(68, 68, 68); stroke-opacity: 1; fill: rgb(171, 99, 250); fill-opacity: 1;"/><text class="node-label" data-notex="1" x="0" y="0" text-anchor="end" transform="translate(-3.25,9.257775650338374)" style="cursor: default; font-family: 'Open Sans', verdana, arial, sans-serif; font-size: 10px; fill: rgb(42, 63, 95); fill-opacity: 1; white-space: pre; text-shadow: white 1px 1px 1px, white -1px -1px 1px, white 1px -1px 1px, white -1px 1px 1px;">Others (2.2%)</text></g><g class="sankey-node" transform="translate(0.000,454.761)" style="opacity: 1;"><rect class="node-rect" width="100" height="19.617539217481294" style="stroke-width: 0.5; stroke: rgb(68, 68, 68); stroke-opacity: 1; fill: rgb(255, 161, 90); fill-opacity: 1;"/><text class="node-label" data-notex="1" x="0" y="0" text-anchor="start" transform="translate(103.25,13.308769608740647)" style="cursor: default; font-family: 'Open Sans', verdana, arial, sans-serif; font-size: 10px; fill: rgb(42, 63, 95); fill-opacity: 1; white-space: pre; text-shadow: white 1px 1px 1px, white -1px -1px 1px, white 1px -1px 1px, white -1px 1px 1px;">Others (3.8%)</text></g><g class="sankey-node" transform="translate(0.000,426.279)" style="opacity: 1;"><rect class="node-rect" width="100" height="13.482378987736638" style="stroke-width: 0.5; stroke: rgb(68, 68, 68); stroke-opacity: 1; fill: rgb(25, 211, 243); fill-opacity: 1;"/><text class="node-label" data-notex="1" x="0" y="0" text-anchor="start" transform="translate(103.25,10.241189493868319)" style="cursor: default; font-family: 'Open Sans', verdana, arial, sans-serif; font-size: 10px; fill: rgb(42, 63, 95); fill-opacity: 1; white-space: pre; text-shadow: white 1px 1px 1px, white -1px -1px 1px, white 1px -1px 1px, white -1px 1px 1px;">SPB 16:1;2 (2.6%)</text></g><g class="sankey-node" transform="translate(0.000,489.379)" style="opacity: 1;"><rect class="node-rect" width="100" height="15.483206200227812" style="stroke-width: 0.5; stroke: rgb(68, 68, 68); stroke-opacity: 1; fill: rgb(255, 102, 146); fill-opacity: 1;"/><text class="node-label" data-notex="1" x="0" y="0" text-anchor="start" transform="translate(103.25,11.241603100113906)" style="cursor: default; font-family: 'Open Sans', verdana, arial, sans-serif; font-size: 10px; fill: rgb(42, 63, 95); fill-opacity: 1; white-space: pre; text-shadow: white 1px 1px 1px, white -1px -1px 1px, white 1px -1px 1px, white -1px 1px 1px;">SPB 18:0;1 (3.0%)</text></g><g class="sankey-node" transform="translate(0.000,519.862)" style="opacity: 1;"><rect class="node-rect" width="100" height="50.68017887715382" style="stroke-width: 0.5; stroke: rgb(68, 68, 68); stroke-opacity: 1; fill: rgb(182, 232, 128); fill-opacity: 1;"/><text class="node-label" data-notex="1" x="0" y="0" text-anchor="start" transform="translate(103.25,28.84008943857691)" style="cursor: default; font-family: 'Open Sans', verdana, arial, sans-serif; font-size: 10px; fill: rgb(42, 63, 95); fill-opacity: 1; white-space: pre; text-shadow: white 1px 1px 1px, white -1px -1px 1px, white 1px -1px 1px, white -1px 1px 1px;">SPB 18:1;1 (9.8%)</text></g><g class="sankey-node" transform="translate(0.000,30.000)" style="opacity: 1;"><rect class="node-rect" width="100" height="381.27908052312773" style="stroke-width: 0.5; stroke: rgb(68, 68, 68); stroke-opacity: 1; fill: rgb(255, 151, 255); fill-opacity: 1;"/><text class="node-label" data-notex="1" x="0" y="0" text-anchor="start" transform="translate(103.25,194.13954026156387)" style="cursor: default; font-family: 'Open Sans', verdana, arial, sans-serif; font-size: 10px; fill: rgb(42, 63, 95); fill-opacity: 1; white-space: pre; text-shadow: white 1px 1px 1px, white -1px -1px 1px, white 1px -1px 1px, white -1px 1px 1px;">SPB 18:1;2 (74.0%)</text></g><g class="sankey-node" transform="translate(0.000,585.542)" style="opacity: 1;"><rect class="node-rect" width="100" height="34.457616194272646" style="stroke-width: 0.5; stroke: rgb(68, 68, 68); stroke-opacity: 1; fill: rgb(254, 203, 82); fill-opacity: 1;"/><text class="node-label" data-notex="1" x="0" y="0" text-anchor="start" transform="translate(103.25,20.728808097136323)" style="cursor: default; font-family: 'Open Sans', verdana, arial, sans-serif; font-size: 10px; fill: rgb(42, 63, 95); fill-opacity: 1; white-space: pre; text-shadow: white 1px 1px 1px, white -1px -1px 1px, white 1px -1px 1px, white -1px 1px 1px;">SPB 18:2;2 (6.7%)</text></g><g class="sankey-node" transform="translate(510.000,588.347)" style="opacity: 1;"><rect class="node-rect" width="100" height="31.652747984161124" style="stroke-width: 0.5; stroke: rgb(68, 68, 68); stroke-opacity: 1; fill: rgb(99, 110, 250); fill-opacity: 1;"/><text class="node-label" data-notex="1" x="0" y="0" text-anchor="start" transform="translate(103.25,19.326373992080562)" style="cursor: default; font-family: 'Open Sans', verdana, arial, sans-serif; font-size: 10px; fill: rgb(42, 63, 95); fill-opacity: 1; white-space: pre; text-shadow: white 1px 1px 1px, white -1px -1px 1px, white 1px -1px 1px, white -1px 1px 1px;">Sphingadiene-Ceramide (6.1%)</text></g></g></g><defs id="topdefs-d4742c"><g class="clips"/></defs><g class="layer-above"><g class="imagelayer"/><g class="shapelayer"/></g><g class="infolayer"><g class="g-gtitle"><text class="gtitle" x="64" y="50" text-anchor="start" dy="0em" style="font-family: 'Open Sans', verdana, arial, sans-serif; font-size: 14px; fill: rgb(42, 63, 95); opacity: 1; white-space: pre;">Plot</text></g><g class="first-render"/></g></svg>